<svg width="14" height="18" viewBox="0 0 14 18" fill="none" xmlns="http://www.w3.org/2000/svg">
<g clip-path="url(#clip0)">
<rect width="14" height="18" fill="white"/>
<path d="M4.93931 15.8518C4.93928 15.8565 4.93896 15.8611 4.93896 15.8658C4.93896 17.0445 5.89691 18 7.0786 18C8.26029 18 9.21824 17.0445 9.21824 15.8658C9.21824 15.8611 9.21792 15.8565 9.21788 15.8518H4.86074H4.93931ZM13.8314 13.1841L11.9057 10.3625V6.84232C11.9057 4.46832 10.2107 2.48944 7.96198 2.04349V0.959498C7.96194 0.429609 7.53127 0 6.99998 0C6.4687 0 6.03803 0.429609 6.03803 0.959498V2.04353C3.78933 2.48952 2.09431 4.4684 2.09431 6.84235V10.3625L0.168632 13.1841C0.0691041 13.3299 0.0113218 13.5001 0.001501 13.6762C-0.00831984 13.8524 0.0301925 14.0278 0.112895 14.1838C0.195597 14.3397 0.31936 14.4702 0.470869 14.5612C0.622378 14.6523 0.7959 14.7004 0.972769 14.7004H13.0272C13.2041 14.7004 13.3776 14.6523 13.5291 14.5612C13.6806 14.4702 13.8044 14.3397 13.8871 14.1838C13.9698 14.0278 14.0083 13.8523 13.9985 13.6762C13.9887 13.5 13.9309 13.3299 13.8314 13.1841Z" fill="black"/>
</g>
<defs>
<clipPath id="clip0">
<rect width="14" height="18" fill="white"/>
</clipPath>
</defs>
</svg>
