<svg id="Layer_1" data-name="Layer 1" xmlns="http://www.w3.org/2000/svg" viewBox="0 0 482.46 512"><defs><style>.cls-1{fill:#db291c;}.cls-2{font-size:100px;fill:#fff;font-family:FrutigerLTStd-Bold, Frutiger LT Std;font-weight:700;}</style></defs><title>pdf-icon</title><path class="cls-1" d="M494.48,138.56,364,3A9.85,9.85,0,0,0,357,0H162.54a39.49,39.49,0,0,0-39.46,39.44V177.23H44.29a29.55,29.55,0,0,0-29.52,29.51V354.49A29.55,29.55,0,0,0,44.29,384h78.79v88.63A39.46,39.46,0,0,0,162.54,512H457.77a39.45,39.45,0,0,0,39.46-39.35V145.39A9.86,9.86,0,0,0,494.48,138.56Zm-135.09-112L466.46,137.85H359.39ZM477.54,472.65a19.74,19.74,0,0,1-19.77,19.66H162.54a19.75,19.75,0,0,1-19.77-19.68V384h167.4a29.55,29.55,0,0,0,29.52-29.51V206.74a29.55,29.55,0,0,0-29.52-29.51H142.77V39.44a19.78,19.78,0,0,1,19.77-19.75H339.69v128a9.85,9.85,0,0,0,9.85,9.85h128V472.65Z" transform="translate(-14.77 0)"/><text class="cls-2" transform="translate(72.33 314.28)">PDF</text></svg>